<svg width="28" height="29" viewBox="0 0 28 29" fill="none" xmlns="http://www.w3.org/2000/svg">
<g clip-path="url(#clip0_14_164)">
<path opacity="0.2" d="M11.9991 0C11.6228 0 11.318 0.347047 11.318 0.775011L11.3193 0.794341C11.3189 0.852781 11.3162 0.92246 11.318 0.973259C11.3268 1.22006 11.3795 1.40931 11.4111 1.63633C11.4682 2.12274 11.5165 2.52643 11.4866 2.90134C11.4581 3.0425 11.3562 3.17197 11.2657 3.26188L11.2495 3.55678C10.8351 3.59129 10.4236 3.65589 10.0181 3.75008C8.31403 4.144 6.76391 5.05042 5.56686 6.35293C5.48412 6.2947 5.40214 6.23535 5.32093 6.17491C5.19929 6.19154 5.07633 6.2302 4.91648 6.13445C4.61127 5.92451 4.33372 5.63456 3.99777 5.28481C3.84407 5.11803 3.73252 4.95935 3.54983 4.79796C3.50812 4.76155 3.44444 4.7121 3.39833 4.67434C3.26339 4.56297 3.0972 4.49871 2.92404 4.49092C2.82101 4.4855 2.71817 4.50493 2.62381 4.54764C2.52946 4.59035 2.44622 4.65515 2.38081 4.73682C2.1463 5.03802 2.2214 5.49835 2.54769 5.76492L2.55823 5.77257C2.60302 5.80988 2.65836 5.85753 2.69964 5.88855C2.89374 6.03555 3.07072 6.11062 3.26439 6.22705C3.67148 6.48464 4.00963 6.69817 4.27751 6.95531C4.38203 7.06995 4.40047 7.27089 4.41409 7.3581L4.63234 7.5577C3.42765 9.40772 2.93269 11.6479 3.24243 13.8486L2.95698 13.9336C2.88232 14.0324 2.77561 14.1893 2.6645 14.2356C2.31406 14.3489 1.9197 14.3903 1.44366 14.4415C1.21969 14.4604 1.02647 14.4492 0.789763 14.495C0.737504 14.5054 0.665043 14.5247 0.607954 14.5382L0.601805 14.5395L0.591706 14.5427C0.19032 14.6416 -0.067462 15.0192 0.0155377 15.3923C0.0985375 15.7641 0.4907 15.9902 0.89472 15.9016L0.90482 15.9003L0.917996 15.8958C0.974207 15.8832 1.04491 15.8688 1.09366 15.8553C1.32685 15.7915 1.49592 15.698 1.7054 15.6157C2.15597 15.4494 2.52924 15.3118 2.89286 15.2579C3.04481 15.2458 3.20466 15.3537 3.28459 15.3995L3.58145 15.3474C4.26477 17.5159 5.69685 19.2687 7.51011 20.3687L7.38627 20.6726C7.43106 20.7909 7.48025 20.9504 7.44687 21.0669C7.31513 21.4175 7.08808 21.7884 6.8303 22.2015C6.70558 22.3921 6.57779 22.54 6.46493 22.759C6.43814 22.8107 6.40345 22.8911 6.37754 22.9464C6.20275 23.3299 6.33099 23.7713 6.66738 23.9372C7.00552 24.1035 7.42579 23.9282 7.6076 23.5439L7.60936 23.5421V23.5407C7.63527 23.4859 7.67172 23.4148 7.69367 23.3631C7.79029 23.137 7.82235 22.9428 7.88998 22.7239C8.07003 22.2609 8.16928 21.7745 8.4174 21.4715C8.48547 21.3883 8.59613 21.3564 8.71119 21.3249L8.86533 21.039C10.4969 21.6822 12.2786 21.8133 13.9832 21.4157C14.3804 21.3234 14.7709 21.203 15.1518 21.0552C15.1957 21.1339 15.2761 21.2854 15.2976 21.3236C15.4144 21.3622 15.5418 21.382 15.6454 21.5393C15.8312 21.8639 15.9581 22.2483 16.1127 22.7122C16.1807 22.9311 16.2141 23.1249 16.3103 23.3515C16.3322 23.4027 16.3691 23.4755 16.395 23.5299C16.5764 23.9156 16.998 24.0918 17.337 23.9251C17.673 23.7587 17.8016 23.3173 17.6269 22.9343C17.6005 22.879 17.5645 22.7985 17.5377 22.7464C17.4248 22.5279 17.2971 22.3813 17.1723 22.1907C16.9146 21.7772 16.7007 21.4346 16.5685 21.0835C16.5132 20.9023 16.5773 20.79 16.6208 20.6722C16.5949 20.6421 16.5395 20.4712 16.507 20.3908C18.3775 19.2548 19.7751 17.455 20.4344 15.3334C20.5222 15.3478 20.6759 15.3757 20.7255 15.3856C20.8278 15.3163 20.9218 15.2264 21.1067 15.2413C21.4703 15.2952 21.8436 15.4332 22.2946 15.5987C22.5041 15.6809 22.6727 15.7762 22.9059 15.8401C22.9551 15.8535 23.0258 15.8661 23.0816 15.8787L23.0947 15.8832L23.1053 15.885C23.5093 15.974 23.9015 15.7475 23.9845 15.3752C24.0675 15.003 23.8097 14.6254 23.4079 14.5256C23.3495 14.5121 23.2669 14.4896 23.2102 14.4784C22.9731 14.4325 22.7799 14.4438 22.5563 14.4244C22.0803 14.3737 21.6859 14.3323 21.3355 14.219C21.1923 14.1624 21.0905 13.9884 21.0413 13.9165L20.7659 13.8347C20.9086 12.7782 20.8704 11.6791 20.6236 10.5791C20.3824 9.50058 19.9496 8.47662 19.347 7.55815C19.4173 7.49296 19.5508 7.37249 19.5885 7.33652C19.5995 7.21155 19.5903 7.08028 19.7168 6.94183C19.9847 6.68424 20.3224 6.47071 20.7299 6.21357C20.9231 6.09669 21.1019 6.02161 21.296 5.87506C21.3399 5.8418 21.3996 5.78965 21.4457 5.75144C21.7725 5.48441 21.848 5.02453 21.613 4.72334C21.3785 4.42214 20.924 4.39382 20.5973 4.6604C20.5507 4.69816 20.4875 4.74761 20.4458 4.78447C20.2631 4.94541 20.1502 5.10455 19.9961 5.27178C19.6601 5.62107 19.3826 5.91238 19.0778 6.12231C18.9456 6.20098 18.752 6.17401 18.6641 6.16861L18.405 6.35742C16.9277 4.77189 14.9164 3.75817 12.7505 3.56127C12.7441 3.45748 12.7387 3.35363 12.7343 3.24974C12.6456 3.16298 12.5384 3.0888 12.5116 2.90134C12.4817 2.52643 12.5314 2.12274 12.5889 1.63633C12.6205 1.40886 12.6728 1.22006 12.682 0.973259C12.6838 0.917066 12.6807 0.835699 12.6802 0.775011C12.6802 0.347047 12.3755 0 11.9991 0ZM11.1463 5.40889L10.9438 9.06681L10.9293 9.07445C10.9228 9.23279 10.8567 9.38242 10.7449 9.49207C10.6331 9.60172 10.4843 9.66293 10.3295 9.6629C10.2024 9.66314 10.0785 9.62188 9.97595 9.54512L9.97024 9.54827L7.04022 7.42194C7.97345 6.48387 9.14394 5.83107 10.4199 5.53701C10.6597 5.48132 10.9021 5.43856 11.1463 5.40889ZM12.8537 5.40889C14.393 5.6038 15.827 6.31146 16.9348 7.42283L14.0236 9.53568L14.0135 9.53119C13.8884 9.62454 13.733 9.66496 13.5796 9.64402C13.4261 9.62309 13.2865 9.54243 13.1897 9.4188C13.1101 9.31727 13.0642 9.19238 13.0588 9.06232L13.0557 9.06097L12.8537 5.40889ZM5.97747 8.78809L8.65278 11.2381L8.64971 11.2529C8.89124 11.4678 8.92681 11.8405 8.72568 12.099C8.64618 12.2012 8.53699 12.2749 8.41388 12.3094L8.41125 12.321L4.98147 13.3343C4.81085 11.7477 5.16129 10.1481 5.97747 8.78809ZM18.0015 8.78989C18.4094 9.4674 18.7061 10.2088 18.8798 10.9846C19.0567 11.7735 19.1011 12.5611 19.0282 13.3222L15.5813 12.3062L15.5782 12.2914C15.4291 12.2491 15.3017 12.1496 15.2224 12.0137C15.1431 11.8777 15.1179 11.7157 15.1522 11.5613C15.1801 11.4346 15.2467 11.3203 15.3424 11.235L15.3411 11.2273L18.0015 8.78989ZM11.4502 11.4269H12.5463L13.2274 12.299L12.9833 13.3865L11.9991 13.8706L11.0123 13.3851L10.7677 12.2972L11.4502 11.4269ZM14.9643 14.4101C15.0106 14.4082 15.057 14.4116 15.1026 14.4204L15.1083 14.4132L18.6554 15.0268C18.1317 16.5335 17.1326 17.8185 15.8158 18.6789L14.4386 15.2741L14.443 15.2682C14.4046 15.177 14.3884 15.0777 14.3956 14.9787C14.4029 14.8797 14.4334 14.7839 14.4846 14.6996C14.5358 14.6152 14.6061 14.5448 14.6897 14.4943C14.7732 14.4438 14.8674 14.4152 14.9643 14.4101ZM9.0063 14.4249C9.10491 14.4264 9.20163 14.4528 9.28793 14.5016C9.37423 14.5505 9.44745 14.6203 9.50114 14.705C9.55483 14.7897 9.58733 14.8866 9.59577 14.9872C9.60421 15.0878 9.58833 15.1889 9.54953 15.2817L9.55963 15.2952L8.19738 18.6654C6.88937 17.8086 5.89416 16.5339 5.36617 15.039L8.8829 14.4276L8.88861 14.4352C8.92742 14.4279 8.96684 14.4245 9.0063 14.4249ZM11.9772 15.9016C12.0743 15.8981 12.1709 15.9191 12.2582 15.9628C12.3772 16.0212 12.4695 16.1138 12.5274 16.2249H12.5406L14.2744 19.4314C14.0468 19.5094 13.8155 19.5755 13.5814 19.6292C12.3064 19.9285 10.9753 19.8585 9.73705 19.4269L11.4664 16.2262H11.4695C11.5191 16.1315 11.592 16.0517 11.6811 15.9947C11.7702 15.9378 11.8722 15.9057 11.9772 15.9016Z" fill="white" fill-opacity="0.35"/>
</g>
<defs>
<clipPath id="clip0_14_164">
<rect width="28" height="29" fill="white"/>
</clipPath>
</defs>
</svg>
