<svg width="175" height="32" viewBox="0 0 175 32" fill="none" xmlns="http://www.w3.org/2000/svg">
<path d="M16.6611 0.524845C16.3791 0.53899 16.1028 0.608829 15.8484 0.730266L4.75731 6.02971C4.47016 6.16681 4.21785 6.36632 4.01914 6.61341C3.82043 6.86051 3.68042 7.14883 3.60952 7.45696L0.873556 19.3607C0.810402 19.6349 0.803352 19.919 0.852823 20.1959C0.902294 20.4729 1.00728 20.7372 1.16157 20.9733C1.1989 21.0308 1.23903 21.0865 1.28183 21.1402L8.95861 30.6863C9.15731 30.9333 9.40958 31.1328 9.69668 31.2698C9.98378 31.4069 10.2983 31.4781 10.617 31.478L22.9281 31.475C23.2466 31.4752 23.561 31.4042 23.848 31.2673C24.135 31.1305 24.3873 30.9313 24.5861 30.6846L32.2603 21.1385C32.4591 20.8914 32.5993 20.603 32.6702 20.2947C32.7412 19.9865 32.7412 19.6664 32.6703 19.3581L29.9296 7.4544C29.8587 7.14638 29.7187 6.85817 29.5201 6.61115C29.3214 6.36414 29.0692 6.16468 28.7822 6.02757L17.6895 0.730266C17.3694 0.577473 17.0158 0.506839 16.6611 0.524845Z" fill="#326CE5"/>
<path d="M16.7695 4.57751C16.4028 4.57751 16.1058 4.9079 16.1058 5.31532L16.107 5.33372C16.1066 5.38936 16.104 5.45569 16.1058 5.50405C16.1143 5.739 16.1657 5.91917 16.1965 6.13529C16.2521 6.59835 16.2992 6.98266 16.2701 7.33958C16.2423 7.47396 16.143 7.59721 16.0548 7.6828L16.039 7.96355C15.6351 7.99641 15.2341 8.0579 14.839 8.14757C13.1783 8.52258 11.6677 9.38549 10.5012 10.6255C10.4205 10.57 10.3407 10.5135 10.2615 10.456C10.143 10.4718 10.0231 10.5086 9.86736 10.4175C9.56993 10.2176 9.29946 9.94158 8.97207 9.60863C8.82228 9.44986 8.71358 9.29879 8.53555 9.14515C8.49489 9.11048 8.43284 9.06341 8.3879 9.02746C8.2564 8.92144 8.09445 8.86026 7.9257 8.85285C7.82529 8.84769 7.72508 8.86618 7.63313 8.90684C7.54117 8.9475 7.46006 9.00919 7.39631 9.08694C7.16778 9.37368 7.24096 9.81191 7.55894 10.0657L7.56921 10.073C7.61286 10.1085 7.66679 10.1539 7.70701 10.1834C7.89617 10.3233 8.06864 10.3948 8.25737 10.5056C8.65409 10.7509 8.98362 10.9541 9.24468 11.1989C9.34653 11.3081 9.36451 11.4994 9.37778 11.5824L9.59047 11.7724C8.41648 13.5336 7.93413 15.6663 8.23597 17.7613L7.9578 17.8422C7.88505 17.9363 7.78105 18.0857 7.67278 18.1298C7.33126 18.2376 6.94695 18.277 6.48304 18.3258C6.26478 18.3437 6.07648 18.3331 5.84581 18.3767C5.79488 18.3865 5.72427 18.4049 5.66863 18.4178L5.66264 18.4191L5.6528 18.4221C5.26164 18.5162 5.01043 18.8757 5.09131 19.2309C5.1722 19.5848 5.55437 19.8001 5.94809 19.7158L5.95793 19.7145L5.97077 19.7102C6.02555 19.6982 6.09445 19.6846 6.14196 19.6717C6.36921 19.6109 6.53397 19.5219 6.73811 19.4436C7.1772 19.2853 7.54096 19.1543 7.89532 19.103C8.04339 19.0914 8.19917 19.1941 8.27706 19.2378L8.56636 19.1881C9.23227 21.2526 10.6279 22.9212 12.3949 23.9684L12.2742 24.2577C12.3179 24.3703 12.3658 24.5222 12.3333 24.6331C12.2049 24.9669 11.9836 25.3199 11.7324 25.7132C11.6109 25.8947 11.4863 26.0355 11.3764 26.2439C11.3503 26.2931 11.3164 26.3697 11.2912 26.4224C11.1209 26.7874 11.2458 27.2077 11.5736 27.3656C11.9032 27.524 12.3127 27.357 12.4899 26.9911L12.4916 26.9894V26.9881C12.5169 26.9359 12.5524 26.8683 12.5738 26.8191C12.6679 26.6038 12.6992 26.419 12.7651 26.2105C12.9406 25.7697 13.0373 25.3067 13.2791 25.0182C13.3454 24.9391 13.4533 24.9087 13.5654 24.8787L13.7156 24.6065C15.3056 25.2188 17.0419 25.3437 18.7031 24.9652C19.0902 24.8773 19.4707 24.7626 19.8419 24.6219C19.8847 24.6968 19.963 24.8411 19.9839 24.8774C20.0978 24.9142 20.2219 24.9331 20.3229 25.0829C20.5039 25.3918 20.6276 25.7578 20.7782 26.1994C20.8446 26.4078 20.8771 26.5923 20.9708 26.808C20.9922 26.8568 21.0282 26.9261 21.0534 26.9779C21.2302 27.3451 21.641 27.5128 21.9714 27.354C22.2988 27.1957 22.4242 26.7754 22.2539 26.4108C22.2282 26.3582 22.1931 26.2816 22.167 26.2319C22.057 26.0239 21.9325 25.8844 21.8109 25.703C21.5597 25.3092 21.3513 24.9831 21.2225 24.6489C21.1685 24.4764 21.231 24.3694 21.2734 24.2573C21.2481 24.2286 21.1942 24.066 21.1625 23.9894C22.9854 22.908 24.3474 21.1946 24.9898 19.1749C25.0754 19.1885 25.2252 19.2151 25.2736 19.2245C25.3733 19.1586 25.4648 19.073 25.645 19.0871C25.9994 19.1385 26.3631 19.2699 26.8027 19.4273C27.0068 19.5057 27.1711 19.5964 27.3984 19.6572C27.4463 19.67 27.5152 19.682 27.5696 19.694L27.5824 19.6982L27.5927 19.7C27.9864 19.7847 28.3686 19.569 28.4495 19.2147C28.5303 18.8603 28.2791 18.5008 27.8875 18.4058C27.8306 18.393 27.7502 18.3716 27.695 18.3609C27.4639 18.3172 27.2756 18.3279 27.0577 18.3095C26.5938 18.2612 26.2095 18.2218 25.868 18.1139C25.7285 18.06 25.6292 17.8944 25.5813 17.8259L25.3129 17.748C25.452 16.7423 25.4148 15.696 25.1743 14.6487C24.9391 13.622 24.5175 12.6472 23.9302 11.7728C23.9987 11.7108 24.1288 11.5961 24.1656 11.5618C24.1763 11.4429 24.1673 11.3179 24.2905 11.1861C24.5516 10.9409 24.8807 10.7376 25.2778 10.4928C25.4661 10.3815 25.6403 10.3101 25.8295 10.1705C25.8723 10.1389 25.9305 10.0892 25.9754 10.0529C26.2938 9.79864 26.3674 9.36084 26.1385 9.07411C25.9099 8.78737 25.467 8.76041 25.1486 9.01419C25.1032 9.05014 25.0416 9.09722 25.0009 9.13231C24.8229 9.28552 24.7129 9.43702 24.5627 9.59622C24.2353 9.92874 23.9648 10.2061 23.6678 10.4059C23.539 10.4808 23.3503 10.4551 23.2647 10.45L23.0122 10.6297C21.5725 9.12033 19.6125 8.15527 17.5018 7.96782C17.4956 7.86902 17.4903 7.77015 17.4859 7.67125C17.3995 7.58865 17.2951 7.51804 17.269 7.33958C17.2399 6.98266 17.2882 6.59835 17.3443 6.13529C17.3751 5.91875 17.426 5.739 17.435 5.50405C17.4367 5.45056 17.4337 5.3731 17.4333 5.31532C17.4333 4.9079 17.1363 4.57751 16.7695 4.57751ZM15.9384 9.72675L15.7411 13.2091L15.727 13.2163C15.7206 13.3671 15.6562 13.5095 15.5473 13.6139C15.4383 13.7183 15.2933 13.7766 15.1424 13.7765C15.0186 13.7768 14.8979 13.7375 14.7979 13.6644L14.7923 13.6674L11.937 11.6432C12.8464 10.7501 13.9871 10.1287 15.2306 9.84872C15.4642 9.7957 15.7005 9.75499 15.9384 9.72675ZM17.6023 9.72675C19.1024 9.9123 20.4999 10.586 21.5794 11.644L18.7424 13.6554L18.7326 13.6512C18.6107 13.74 18.4592 13.7785 18.3097 13.7586C18.1602 13.7386 18.0241 13.6619 17.9297 13.5442C17.8522 13.4475 17.8075 13.3286 17.8022 13.2048L17.7992 13.2035L17.6023 9.72675ZM10.9013 12.9437L13.5085 15.2761L13.5055 15.2902C13.7408 15.4948 13.7755 15.8496 13.5795 16.0957C13.502 16.193 13.3956 16.2631 13.2757 16.296L13.2731 16.3071L9.9307 17.2717C9.76443 15.7613 10.1059 14.2385 10.9013 12.9437ZM22.6189 12.9454C23.0165 13.5904 23.3056 14.2962 23.4748 15.0348C23.6473 15.7858 23.6905 16.5356 23.6195 17.2602L20.2604 16.293L20.2574 16.2788C20.1121 16.2386 19.988 16.1439 19.9106 16.0145C19.8333 15.8851 19.8089 15.7308 19.8423 15.5838C19.8695 15.4632 19.9344 15.3544 20.0276 15.2731L20.0263 15.2659L22.6189 12.9454ZM16.2346 15.4559H17.3028L17.9665 16.2861L17.7286 17.3214L16.7695 17.7823L15.8079 17.3201L15.5695 16.2844L16.2346 15.4559ZM19.6591 18.2958C19.7043 18.294 19.7495 18.2973 19.7939 18.3057L19.7995 18.2988L23.2561 18.883C22.7459 20.3173 21.7722 21.5407 20.4889 22.3597L19.1469 19.1184L19.1511 19.1128C19.1137 19.026 19.0979 18.9314 19.105 18.8371C19.112 18.7429 19.1418 18.6517 19.1917 18.5714C19.2416 18.4911 19.3101 18.4241 19.3915 18.376C19.4729 18.328 19.5647 18.3007 19.6591 18.2958ZM13.853 18.3099C13.9491 18.3114 14.0433 18.3365 14.1274 18.383C14.2115 18.4295 14.2829 18.496 14.3352 18.5766C14.3875 18.6572 14.4192 18.7495 14.4274 18.8452C14.4356 18.941 14.4202 19.0373 14.3824 19.1256L14.3922 19.1385L13.0647 22.3469C11.79 21.5312 10.8201 20.3177 10.3056 18.8945L13.7327 18.3125L13.7383 18.3198C13.7761 18.3128 13.8145 18.3095 13.853 18.3099ZM16.7481 19.7158C16.8428 19.7124 16.9369 19.7324 17.022 19.774C17.138 19.8296 17.2279 19.9178 17.2844 20.0235H17.2972L18.9868 23.0761C18.765 23.1504 18.5396 23.2133 18.3115 23.2645C17.069 23.5493 15.7718 23.4827 14.5651 23.0719L16.2504 20.0248H16.2534C16.3017 19.9346 16.3728 19.8586 16.4596 19.8044C16.5464 19.7502 16.6459 19.7196 16.7481 19.7158Z" fill="white"/>
<path d="M74.238 6.34558L70.4992 6.92471V24.9062C70.8674 25.0479 71.2496 25.1519 71.6398 25.2167C72.0954 25.3062 72.5521 25.3958 73.0077 25.4406C73.5092 25.4844 73.9638 25.5291 74.4653 25.5729C74.9678 25.6177 75.4235 25.6625 75.8791 25.6625C76.8712 25.6849 77.8595 25.5343 78.7974 25.2177C79.5927 24.8911 80.3192 24.4235 80.94 23.8386C81.5371 23.2302 81.9886 22.5003 82.262 21.7012C82.5834 20.8003 82.738 19.8509 82.7187 18.8971C82.7133 17.9837 82.6063 17.0735 82.3996 16.1827C82.203 15.3993 81.8289 14.6689 81.3049 14.0453C80.8118 13.4679 80.1874 13.0109 79.4813 12.7109C78.708 12.3721 77.8672 12.2049 77.0197 12.2214C76.5299 12.2175 76.0408 12.2619 75.5601 12.3537C75.1055 12.4395 74.6621 12.5743 74.238 12.7557V6.34558ZM45.1948 6.34558L41.457 6.92573V25.3062H45.1948V19.6982C45.6498 20.0525 46.0628 20.4553 46.4262 20.8992C46.8747 21.3731 47.286 21.8793 47.6564 22.4137C48.0519 22.9116 48.4174 23.4316 48.7512 23.9709C49.0713 24.4594 49.3893 24.9073 49.6635 25.351H53.9486C53.6765 24.8167 53.3106 24.2386 52.8998 23.5699C52.4859 22.8905 52.0298 22.2365 51.5339 21.6116C51.0309 20.9783 50.514 20.3556 49.9836 19.7439C49.4999 19.1793 48.9818 18.6437 48.4322 18.1399C49.3685 17.2286 50.2805 16.2936 51.1669 15.3358C52.0323 14.4463 52.8998 13.4661 53.7662 12.488H49.3444C49.1172 12.7547 48.7981 13.1089 48.478 13.4651C48.1579 13.8214 47.7941 14.2234 47.4292 14.6682C47.0507 15.0847 46.6708 15.4999 46.2896 15.914C45.8965 16.2987 45.5451 16.6834 45.1948 17.0671V6.34558ZM143.859 8.70485L140.121 9.28398V20.0554C140.12 20.8174 140.196 21.5777 140.348 22.3251C140.496 22.9745 140.792 23.583 141.214 24.1052C141.649 24.5933 142.197 24.9745 142.811 25.2177C143.629 25.5052 144.494 25.6412 145.363 25.6187C146.052 25.6383 146.741 25.5786 147.415 25.4406C147.932 25.3453 148.436 25.1958 148.92 24.9948L148.372 22.147C147.987 22.2831 147.59 22.3873 147.187 22.4584C146.779 22.5095 146.368 22.539 145.957 22.547C145.135 22.547 144.543 22.3251 144.269 21.8793C143.968 21.3177 143.827 20.6881 143.859 20.0554V15.516H148.328V12.489H143.859V8.70485ZM170.212 12.1318C168.617 12.1318 167.34 12.488 166.427 13.2005C165.98 13.532 165.623 13.9644 165.384 14.4606C165.146 14.9567 165.035 15.5019 165.06 16.0493C165.045 16.5955 165.138 17.1394 165.334 17.6513C165.509 18.0839 165.772 18.4775 166.107 18.8086C166.457 19.1351 166.858 19.4054 167.295 19.6096C167.749 19.8315 168.297 20.0544 168.89 20.2773C169.478 20.47 170.043 20.7238 170.576 21.0345C170.941 21.2564 171.123 21.4783 171.123 21.7897C171.138 21.9411 171.107 22.0934 171.034 22.2278C170.961 22.3623 170.85 22.4732 170.714 22.547C170.244 22.6998 169.748 22.7603 169.254 22.7251C168.626 22.7346 167.999 22.6749 167.385 22.547C166.718 22.4013 166.062 22.2081 165.424 21.9689L164.786 24.951C165.3 25.1656 165.834 25.3293 166.382 25.4396C167.334 25.6776 168.317 25.7828 169.3 25.752C171.123 25.752 172.49 25.4406 173.448 24.7729C173.924 24.4516 174.307 24.0172 174.563 23.5109C174.818 23.0046 174.937 22.443 174.908 21.8793C174.924 21.3979 174.863 20.917 174.726 20.4544C174.622 20.0334 174.401 19.6487 174.088 19.3429C173.756 18.943 173.335 18.6226 172.857 18.4066C172.196 18.0607 171.51 17.7637 170.803 17.518C170.394 17.3399 170.075 17.2513 169.801 17.118C169.573 16.9837 169.345 16.8503 169.208 16.7618C169.065 16.6802 168.953 16.5551 168.889 16.4056C168.838 16.277 168.807 16.1413 168.798 16.0035C168.798 15.3806 169.345 15.0692 170.531 15.0692C171.099 15.0539 171.666 15.1142 172.217 15.2483C172.72 15.3806 173.175 15.515 173.631 15.6493L174.27 12.7995C173.71 12.5909 173.129 12.4418 172.537 12.3547C171.771 12.2117 170.992 12.1378 170.212 12.1318ZM91.2901 12.1766C90.4772 12.1678 89.6708 12.319 88.9191 12.6214C88.1583 12.8968 87.4721 13.3386 86.9131 13.9129C86.3092 14.5323 85.8299 15.257 85.5004 16.0493C85.1157 16.9977 84.9295 18.0117 84.953 19.0315C84.9565 19.9333 85.0791 20.831 85.3179 21.7022C85.597 22.4883 86.0301 23.2139 86.5931 23.8386C87.2226 24.4342 87.9663 24.9028 88.7815 25.2177C89.7688 25.5939 90.8227 25.7755 91.8823 25.752C92.3389 25.752 92.8394 25.7073 93.296 25.6625C93.7398 25.6307 94.1811 25.5712 94.617 25.4844C95.0054 25.4573 95.3887 25.382 95.7577 25.2604C96.1226 25.1281 96.3958 25.0396 96.5782 24.95L96.0778 21.9678C95.5474 22.1708 94.9972 22.3202 94.4356 22.4137C93.7751 22.5408 93.1028 22.6005 92.4296 22.5918C91.5281 22.634 90.6355 22.4006 89.8763 21.9241C89.5709 21.724 89.3145 21.4606 89.1253 21.1528C88.9361 20.8449 88.8187 20.5001 88.7815 20.1429H97.2622C97.2622 19.921 97.308 19.6992 97.308 19.4763C97.3443 19.2405 97.3593 19.0021 97.3529 18.7638C97.3529 16.6264 96.8065 14.9806 95.7128 13.8682C95.1382 13.2994 94.4476 12.8549 93.6856 12.5635C92.9237 12.272 92.1075 12.1402 91.2901 12.1766ZM131.276 12.1766C130.463 12.1678 129.656 12.319 128.905 12.6214C128.144 12.8968 127.458 13.3386 126.899 13.9129C126.294 14.5322 125.815 15.2569 125.485 16.0493C125.1 16.9977 124.914 18.0117 124.937 19.0315C124.941 19.9333 125.064 20.831 125.302 21.7022C125.582 22.4885 126.016 23.2141 126.58 23.8386C127.209 24.4342 127.953 24.9028 128.768 25.2177C129.755 25.5937 130.809 25.7753 131.868 25.752C132.323 25.752 132.825 25.7073 133.282 25.6625C133.726 25.6307 134.167 25.5712 134.604 25.4844C134.992 25.4572 135.375 25.382 135.743 25.2604C136.108 25.1281 136.381 25.0396 136.564 24.95L136.063 21.9678C135.533 22.1707 134.983 22.3201 134.422 22.4137C133.761 22.541 133.088 22.6007 132.414 22.5918C131.513 22.6338 130.621 22.4004 129.862 21.9241C129.556 21.724 129.3 21.4606 129.111 21.1528C128.922 20.8449 128.804 20.5001 128.767 20.1429H137.248C137.248 19.921 137.294 19.6992 137.294 19.4763C137.33 19.2405 137.345 19.0021 137.338 18.7638C137.338 16.6284 136.792 14.9806 135.698 13.8682C135.124 13.2994 134.433 12.8549 133.671 12.5635C132.909 12.272 132.093 12.1402 131.276 12.1766ZM156.58 12.1766C155.767 12.1676 154.96 12.3189 154.208 12.6214C153.447 12.8968 152.761 13.3386 152.202 13.9129C151.598 14.5323 151.119 15.257 150.789 16.0493C150.404 16.9977 150.218 18.0117 150.242 19.0315C150.223 19.9347 150.346 20.8353 150.607 21.7022C150.886 22.4885 151.32 23.2141 151.884 23.8386C152.513 24.434 153.257 24.9027 154.071 25.2177C155.059 25.5939 156.113 25.7755 157.172 25.752C157.628 25.752 158.129 25.7073 158.586 25.6625C159.03 25.6307 159.471 25.5712 159.907 25.4844C160.295 25.4573 160.679 25.382 161.048 25.2604C161.412 25.1281 161.686 25.0396 161.868 24.95L161.367 21.9678C160.837 22.1707 160.287 22.3201 159.725 22.4137C159.065 22.5409 158.392 22.6006 157.718 22.5918C156.817 22.6338 155.925 22.4004 155.166 21.9241C154.861 21.724 154.604 21.4606 154.415 21.1528C154.226 20.8449 154.109 20.5001 154.071 20.1429H162.552C162.552 19.921 162.598 19.6992 162.598 19.4763C162.634 19.2405 162.649 19.0021 162.643 18.7638C162.643 16.6284 162.096 14.9806 161.002 13.8682C160.427 13.2995 159.737 12.8551 158.975 12.5637C158.213 12.2723 157.397 12.1404 156.58 12.1766ZM105.606 12.2224C104.579 12.206 103.553 12.3102 102.551 12.5328C101.749 12.6924 100.957 12.9004 100.18 13.1557V25.3958H103.919V15.5598C104.16 15.5033 104.404 15.4587 104.649 15.4264C104.936 15.3819 105.225 15.352 105.514 15.3369C106.004 15.3337 106.493 15.3787 106.974 15.4712C107.375 15.5115 107.772 15.586 108.16 15.6941L108.798 12.6661C108.615 12.6224 108.341 12.5338 108.068 12.489C107.779 12.4479 107.49 12.4031 107.202 12.3547C106.916 12.3056 106.627 12.276 106.336 12.2661C106.095 12.2307 105.85 12.2161 105.606 12.2224ZM116.412 12.2224C114.519 12.2219 112.634 12.4611 110.805 12.9338L110.804 25.4406H114.498V15.515C114.768 15.461 115.042 15.4313 115.317 15.4264C115.604 15.3905 115.894 15.3756 116.184 15.3816C117.05 15.3816 117.642 15.6045 117.961 16.0941C118.281 16.5827 118.418 17.4295 118.418 18.5877V25.3968H122.157V18.1399C122.165 17.3313 122.073 16.5247 121.883 15.7379C121.711 15.0612 121.401 14.4253 120.971 13.8682C120.506 13.3122 119.89 12.8955 119.193 12.6661C118.306 12.3354 117.36 12.1844 116.412 12.2224ZM55.5897 12.489V19.6544C55.586 20.4627 55.678 21.2687 55.8639 22.0564C55.9901 22.7551 56.3001 23.4097 56.7637 23.9561C57.2272 24.5025 57.8283 24.9218 58.508 25.1729C59.4108 25.5022 60.3715 25.6537 61.3346 25.6187C62.3882 25.6355 63.4412 25.5606 64.4812 25.3948C65.3125 25.289 66.1351 25.1257 66.9428 24.9062L66.9887 12.489H63.2499V22.4126C62.9767 22.4584 62.7484 22.4584 62.4293 22.5022C62.1424 22.538 61.8531 22.553 61.5639 22.547C60.6965 22.547 60.1036 22.28 59.7852 21.746C59.4662 21.2126 59.3296 20.3668 59.3296 19.2096V12.489H55.5897ZM91.3349 15.114C91.6825 15.0956 92.0296 15.1589 92.3471 15.2984C92.6645 15.438 92.9431 15.6497 93.1595 15.916C93.3399 16.159 93.4783 16.4293 93.5692 16.716C93.6721 16.9878 93.7318 17.2734 93.7465 17.5628H88.8274C88.8819 17.2611 88.9582 16.9635 89.0557 16.6722C89.1521 16.3785 89.3069 16.1063 89.5113 15.8712C89.704 15.6353 89.9552 15.4514 90.2412 15.3369C90.5859 15.1889 90.9583 15.1136 91.3349 15.114ZM131.319 15.114C131.667 15.0955 132.014 15.1586 132.332 15.2982C132.65 15.4377 132.928 15.6496 133.145 15.916C133.325 16.159 133.464 16.4293 133.555 16.716C133.658 16.9878 133.717 17.2734 133.732 17.5628H128.813C128.867 17.2611 128.944 16.9635 129.041 16.6722C129.138 16.3785 129.292 16.1063 129.497 15.8712C129.69 15.6353 129.941 15.4514 130.227 15.3369C130.571 15.1889 130.944 15.1126 131.32 15.1129L131.319 15.114ZM156.58 15.114C156.928 15.0956 157.275 15.1589 157.592 15.2984C157.91 15.438 158.188 15.6497 158.404 15.916C158.585 16.1591 158.723 16.4293 158.813 16.716C158.916 16.9878 158.976 17.2734 158.99 17.5628H154.071C154.126 17.261 154.203 16.9634 154.301 16.6722C154.397 16.3786 154.551 16.1064 154.755 15.8712C154.948 15.6353 155.199 15.4514 155.485 15.3369C155.83 15.1887 156.203 15.1135 156.58 15.114ZM76.2899 15.2931C78.0676 15.2931 78.935 16.4493 78.935 18.8086C78.9753 19.7709 78.7039 20.721 78.1593 21.5241C77.8817 21.8614 77.5264 22.1299 77.1224 22.3079C76.7184 22.4858 76.277 22.5681 75.8343 22.548C75.5142 22.548 75.1951 22.5022 74.922 22.5022C74.6478 22.4584 74.4205 22.4584 74.238 22.4137V15.7816C74.5231 15.6209 74.8303 15.5009 75.1503 15.4254C75.5235 15.3379 75.906 15.2935 76.2899 15.2931Z" fill="#0A0A0A"/>
</svg>
