<svg width="94" height="27" viewBox="0 0 94 27" fill="none" xmlns="http://www.w3.org/2000/svg">
<g id="Frame 109">
<g id="XMLID_34_">
<g id="XMLID_43_">
<path id="XMLID_44_" d="M7.89844 10.9245L15.6402 20.9993H21.6056L10.8498 7.08789L7.89844 10.9245Z" fill="black"/>
</g>
<g id="XMLID_41_">
<path id="XMLID_42_" d="M21.6427 0.812988L10.8632 14.7711L7.89844 10.9248L15.6772 0.812988H21.6427Z" fill="black"/>
</g>
<g id="XMLID_39_">
<path id="XMLID_40_" d="M0.000976562 20.9995L7.08019 12.0059L10.0449 15.8521L5.96642 20.9995H0.000976562Z" fill="black"/>
</g>
<g id="XMLID_36_">
<path id="XMLID_38_" d="M0.000976562 0.812988L7.08019 9.80653L10.0449 5.96041L5.96642 0.812988H0.000976562Z" fill="black"/>
</g>
</g>
<g id="grid.co">
<path d="M33.0227 7.1366H34.4725V21.0213C34.4725 22.2491 34.2374 23.3028 33.7672 24.1823C33.3057 25.0618 32.6482 25.7366 31.7949 26.2068C30.9502 26.6771 29.9532 26.9122 28.8037 26.9122C28.2203 26.9122 27.6194 26.8208 27.0012 26.6379C26.3916 26.4637 25.8126 26.1938 25.264 25.8281C24.7241 25.471 24.2626 25.0269 23.8794 24.4957L24.7546 23.5422C25.3293 24.2389 25.9432 24.7483 26.5963 25.0705C27.2494 25.4014 27.9547 25.5668 28.7123 25.5668C29.6092 25.5668 30.3668 25.3883 30.985 25.0313C31.612 24.6743 32.0866 24.1605 32.4088 23.49C32.7397 22.8195 32.9051 22.014 32.9051 21.0736V10.2453L33.0227 7.1366ZM23.0957 14.3467V14.0724C23.0957 12.9752 23.2176 11.9869 23.4614 11.1074C23.714 10.2192 24.0753 9.46161 24.5456 8.83464C25.0158 8.19896 25.5862 7.71568 26.2567 7.38478C26.9359 7.04517 27.7022 6.87537 28.5555 6.87537C29.3741 6.87537 30.1012 7.01034 30.7369 7.28028C31.3725 7.55023 31.9211 7.93773 32.3826 8.44279C32.8442 8.94784 33.2143 9.54869 33.4929 10.2453C33.7803 10.9419 33.9893 11.7169 34.1199 12.5703V16.0578C34.0154 16.8589 33.8238 17.5948 33.5451 18.2653C33.2665 18.9271 32.8964 19.5061 32.4349 20.0025C31.9734 20.4901 31.4161 20.8689 30.763 21.1389C30.1186 21.4001 29.3741 21.5307 28.5294 21.5307C27.6848 21.5307 26.9272 21.3566 26.2567 21.0082C25.5862 20.6599 25.0158 20.1679 24.5456 19.5323C24.0753 18.8879 23.714 18.1259 23.4614 17.2464C23.2176 16.3669 23.0957 15.4004 23.0957 14.3467ZM24.6631 14.0724V14.3467C24.6631 15.174 24.7458 15.9403 24.9113 16.6456C25.0767 17.3509 25.3293 17.9648 25.6689 18.4873C26.0085 19.0098 26.4395 19.4191 26.962 19.7151C27.4845 20.0112 28.0984 20.1592 28.8037 20.1592C29.7006 20.1592 30.4539 19.9894 31.0634 19.6498C31.673 19.3015 32.1562 18.8443 32.5133 18.2783C32.8703 17.7036 33.1315 17.0766 33.297 16.3974V12.3352C33.2012 11.8737 33.0532 11.4035 32.8529 10.9245C32.6613 10.4456 32.3914 10.0058 32.043 9.60529C31.7034 9.19602 31.268 8.86947 30.7369 8.62565C30.2144 8.37312 29.5787 8.24686 28.8298 8.24686C28.1158 8.24686 27.4932 8.39489 26.962 8.69096C26.4395 8.98703 26.0085 9.40065 25.6689 9.93183C25.3293 10.4543 25.0767 11.0682 24.9113 11.7735C24.7458 12.4789 24.6631 13.2452 24.6631 14.0724Z" fill="black"/>
<path d="M39.0452 9.47467V21.2695H37.4909V7.1366H39.006L39.0452 9.47467ZM44.0479 7.03211L44.0087 8.46891C43.8345 8.44279 43.6647 8.42102 43.4993 8.4036C43.3338 8.38618 43.1553 8.37748 42.9638 8.37748C42.2845 8.37748 41.6881 8.50374 41.1743 8.75627C40.6692 9.00009 40.2425 9.34405 39.8942 9.78815C39.5459 10.2235 39.2803 10.7373 39.0975 11.3294C38.9146 11.9129 38.8101 12.5398 38.784 13.2103L38.2093 13.4324C38.2093 12.5094 38.305 11.6516 38.4966 10.8592C38.6882 10.0668 38.9799 9.37453 39.3718 8.78239C39.7723 8.18155 40.273 7.71568 40.8739 7.38478C41.4834 7.04517 42.1975 6.87537 43.016 6.87537C43.2163 6.87537 43.4122 6.89278 43.6038 6.92762C43.8041 6.95374 43.9521 6.98857 44.0479 7.03211Z" fill="black"/>
<path d="M47.1707 7.1366V21.2695H45.6164V7.1366H47.1707ZM45.3421 3.04826C45.3421 2.75219 45.4335 2.50402 45.6164 2.30373C45.8079 2.09475 46.0692 1.99025 46.4001 1.99025C46.731 1.99025 46.9922 2.09475 47.1838 2.30373C47.384 2.50402 47.4842 2.75219 47.4842 3.04826C47.4842 3.33562 47.384 3.58379 47.1838 3.79278C46.9922 3.99306 46.731 4.0932 46.4001 4.0932C46.0692 4.0932 45.8079 3.99306 45.6164 3.79278C45.4335 3.58379 45.3421 3.33562 45.3421 3.04826Z" fill="black"/>
<path d="M59.5543 18.5265V1.20654H61.1218V21.2695H59.6588L59.5543 18.5265ZM49.7449 14.3467V14.0724C49.7449 12.9752 49.8712 11.9869 50.1237 11.1074C50.3762 10.2192 50.7376 9.46161 51.2078 8.83464C51.6868 8.19896 52.2615 7.71568 52.932 7.38478C53.6025 7.04517 54.3601 6.87537 55.2048 6.87537C56.032 6.87537 56.7635 7.01034 57.3991 7.28028C58.0348 7.55023 58.5791 7.93773 59.0319 8.44279C59.4934 8.94784 59.8635 9.54869 60.1421 10.2453C60.4295 10.9419 60.6385 11.7169 60.7691 12.5703V16.0578C60.6646 16.8589 60.473 17.5948 60.1944 18.2653C59.9157 18.9271 59.5456 19.5061 59.0841 20.0025C58.6226 20.4901 58.0653 20.8689 57.4122 21.1389C56.7678 21.4001 56.0233 21.5307 55.1786 21.5307C54.3427 21.5307 53.5895 21.3566 52.9189 21.0082C52.2484 20.6599 51.6781 20.1679 51.2078 19.5323C50.7376 18.8879 50.3762 18.1259 50.1237 17.2464C49.8712 16.3669 49.7449 15.4004 49.7449 14.3467ZM51.3123 14.0724V14.3467C51.3123 15.174 51.3951 15.9403 51.5605 16.6456C51.726 17.3509 51.9785 17.9648 52.3181 18.4873C52.6577 19.0098 53.0887 19.4191 53.6112 19.7151C54.1337 20.0112 54.752 20.1592 55.466 20.1592C56.3629 20.1592 57.1161 19.9894 57.7257 19.6498C58.3352 19.3015 58.8229 18.8443 59.1886 18.2783C59.5543 17.7036 59.8199 17.0766 59.9854 16.3974V12.3352C59.8809 11.8737 59.7285 11.4035 59.5282 10.9245C59.3279 10.4456 59.0536 10.0058 58.7053 9.60529C58.3657 9.19602 57.9303 8.86947 57.3991 8.62565C56.8767 8.37312 56.241 8.24686 55.4921 8.24686C54.7694 8.24686 54.1468 8.39489 53.6243 8.69096C53.1018 8.98703 52.6664 9.40065 52.3181 9.93183C51.9785 10.4543 51.726 11.0682 51.5605 11.7735C51.3951 12.4789 51.3123 13.2452 51.3123 14.0724Z" fill="black"/>
<path d="M64.0225 20.316C64.0225 20.0112 64.1183 19.7543 64.3099 19.5453C64.5102 19.3276 64.7801 19.2188 65.1197 19.2188C65.468 19.2188 65.7423 19.3233 65.9426 19.5323C66.1429 19.7412 66.243 20.0025 66.243 20.316C66.243 20.612 66.1429 20.8646 65.9426 21.0736C65.7423 21.2825 65.468 21.387 65.1197 21.387C64.7801 21.387 64.5102 21.2825 64.3099 21.0736C64.1183 20.8646 64.0225 20.612 64.0225 20.316Z" fill="black"/>
<path d="M74.7081 20.1854C75.3699 20.1854 75.9882 20.0634 76.5629 19.8196C77.1463 19.5671 77.6253 19.197 77.9997 18.7094C78.3829 18.213 78.6005 17.6078 78.6528 16.8938H80.1418C80.0983 17.7907 79.824 18.5918 79.3189 19.2971C78.8226 19.9938 78.1695 20.5424 77.3597 20.9429C76.5586 21.3348 75.6747 21.5307 74.7081 21.5307C73.7241 21.5307 72.8534 21.3522 72.0958 20.9952C71.3469 20.6382 70.7199 20.1418 70.2149 19.5061C69.7098 18.8618 69.3267 18.1129 69.0654 17.2595C68.8129 16.3974 68.6866 15.47 68.6866 14.4773V13.9287C68.6866 12.936 68.8129 12.013 69.0654 11.1596C69.3267 10.2976 69.7098 9.54869 70.2149 8.91301C70.7199 8.26863 71.3469 7.76792 72.0958 7.4109C72.8446 7.05388 73.7111 6.87537 74.6951 6.87537C75.7052 6.87537 76.6108 7.08 77.4119 7.48927C78.2218 7.89854 78.8661 8.47762 79.3451 9.22649C79.8327 9.97537 80.0983 10.8636 80.1418 11.8911H78.6528C78.6093 11.1335 78.409 10.4804 78.052 9.93183C77.6949 9.38323 77.2247 8.9609 76.6413 8.66484C76.0578 8.36877 75.4091 8.22073 74.6951 8.22073C73.8939 8.22073 73.2104 8.37748 72.6444 8.69096C72.0784 8.99574 71.6168 9.41807 71.2598 9.95796C70.9115 10.4891 70.6546 11.0987 70.4892 11.7866C70.3237 12.4658 70.241 13.1799 70.241 13.9287V14.4773C70.241 15.2349 70.3194 15.9577 70.4761 16.6456C70.6416 17.3248 70.8984 17.93 71.2468 18.4612C71.6038 18.9924 72.0653 19.4147 72.6313 19.7282C73.206 20.033 73.8983 20.1854 74.7081 20.1854Z" fill="black"/>
<path d="M81.3576 14.4251V13.9941C81.3576 12.9665 81.5057 12.0174 81.8017 11.1466C82.0978 10.2758 82.5201 9.52256 83.0687 8.88689C83.626 8.25121 84.2922 7.75922 85.0672 7.4109C85.8422 7.05388 86.7043 6.87537 87.6534 6.87537C88.6113 6.87537 89.4777 7.05388 90.2527 7.4109C91.0277 7.75922 91.6939 8.25121 92.2512 8.88689C92.8085 9.52256 93.2352 10.2758 93.5312 11.1466C93.8273 12.0174 93.9753 12.9665 93.9753 13.9941V14.4251C93.9753 15.4526 93.8273 16.4018 93.5312 17.2726C93.2352 18.1346 92.8085 18.8835 92.2512 19.5192C91.7026 20.1549 91.0408 20.6512 90.2658 21.0082C89.4908 21.3566 88.6287 21.5307 87.6796 21.5307C86.7217 21.5307 85.8553 21.3566 85.0802 21.0082C84.3052 20.6512 83.6391 20.1549 83.0818 19.5192C82.5245 18.8835 82.0978 18.1346 81.8017 17.2726C81.5057 16.4018 81.3576 15.4526 81.3576 14.4251ZM82.912 13.9941V14.4251C82.912 15.2001 83.0165 15.9359 83.2255 16.6325C83.4345 17.3205 83.7392 17.9344 84.1398 18.4743C84.5404 19.0054 85.0367 19.4234 85.6288 19.7282C86.221 20.033 86.9045 20.1854 87.6796 20.1854C88.4458 20.1854 89.1207 20.033 89.7041 19.7282C90.2963 19.4234 90.7926 19.0054 91.1932 18.4743C91.5937 17.9344 91.8942 17.3205 92.0944 16.6325C92.3034 15.9359 92.4079 15.2001 92.4079 14.4251V13.9941C92.4079 13.2278 92.3034 12.5007 92.0944 11.8127C91.8942 11.1248 91.5894 10.5109 91.1801 9.97102C90.7795 9.43113 90.2832 9.00444 89.6911 8.69096C89.0989 8.37748 88.4197 8.22073 87.6534 8.22073C86.8871 8.22073 86.2079 8.37748 85.6158 8.69096C85.0324 9.00444 84.536 9.43113 84.1267 9.97102C83.7262 10.5109 83.4214 11.1248 83.2124 11.8127C83.0121 12.5007 82.912 13.2278 82.912 13.9941Z" fill="black"/>
</g>
</g>
</svg>
